# xmcd
#
# Track frame offsets:
#	150
#	14192
#	28029
#	41520
#	56546
#	71044
#	84146
#	100028
#	116343
#	131490
#	149347
#	164182
#	182337
#	195207
#	215230
#	228906
#	245048
#	260973
#	276495
#	294352
#
# Disc length: 4119 seconds
#
# Revision: 1
# Processed by: cddbd v1.5.1PL0 Copyright (c) Steve Scherf et al.
# Submitted via: EasyCDDAExtractor 6.2.0.3
#
DISCID=2e101514
DTITLE=Various Artist - Explosão Gaúcha Vol 05
DYEAR=2005
DGENRE=Other
TTITLE0=Grupo Minuano - Vem Pra Cá Neguinha
TTITLE1=Os Serranos - Credo Em Cruz, Ave Maria
TTITLE2=Garotos De Ouro - Lambendo Epuleta
TTITLE3=João Luiz Corrêa - Vanera Do Rancho
TTITLE4=Tche Guri - Pega Na Sanfona
TTITLE5=Gaúcho Da Fronteira - Forró Da Carolina
TTITLE6=Oswaldir and Carlos Magrão - Matando No Cansaço
TTITLE7=Os Serranos - Paixão Brasileira
TTITLE8=Grupo Minuano - Lá Vem Ela
TTITLE9=Garotos De Ouro - Morenaça
TTITLE10=João Luiz Corrêa - Florão De Loura
TTITLE11=Fogo De Chão - Tchau Amor
TTITLE12=Tchê Guri - Uma Chuva De Alegria
TTITLE13=Baitaca - Lamento De Pobre
TTITLE14=Mano Lima - Mal Parido
TTITLE15=João Luiz Corrêa - Surungo De Respeito
TTITLE16=Porca Véia - Viva O Gaitaço
TTITLE17=Fogo De Chão - Gogante No Laço
TTITLE18=Gaúcho Da Fronteira - Manda Brasa (Part. Esp. Tchê Garotos)
TTITLE19=João Luiz Corrêa - Coisa Linda Essa Prendinha
EXTD=by Flávio Abrahão Biasuz\n
EXTT0=
EXTT1=
EXTT2=
EXTT3=
EXTT4=
EXTT5=
EXTT6=
EXTT7=
EXTT8=
EXTT9=
EXTT10=
EXTT11=
EXTT12=
EXTT13=
EXTT14=
EXTT15=
EXTT16=
EXTT17=
EXTT18=
EXTT19=
PLAYORDER=
